<svg xmlns="http://www.w3.org/2000/svg" viewBox="0 0 512 512" width="512" height="512" role="img" aria-label="Olimlar.uz">
  <rect width="512" height="512" rx="96" fill="#1e40af"/>
  <g fill="#ffffff" transform="translate(96 96) scale(20)">
    <path d="M8.211 2.047a.5.5 0 0 0-.422 0l-7.5 3.5a.5.5 0 0 0 .025.917l7.5 3a.5.5 0 0 0 .372 0L14 6.14V11a1 1 0 0 0-1 1v2h1v-2h.5a.5.5 0 0 0 .5-.5V5.5a.5.5 0 0 0-.289-.453z"/>
    <path d="M4.176 9.032a.5.5 0 0 0-.656.327l-.5 1.7a.5.5 0 0 0 .294.605l4.5 1.8a.5.5 0 0 0 .372 0l4.5-1.8a.5.5 0 0 0 .294-.605l-.5-1.7a.5.5 0 0 0-.656-.327L8 10.466z"/>
  </g>
</svg>
